Coordinates
version=1
nRows=28
nColumns=33
inDegrees=yes

Units are S.I. units (second, meters, Newtons, ...)
Angles are in degrees.

endheader
time	ground_thorax_rot_x	ground_thorax_rot_y	ground_thorax_rot_z	ground_thorax_tx	ground_thorax_ty	ground_thorax_tz	clav_prot_r	clav_elev_r	scapula_abduction_r	scapula_elevation_r	scapula_upward_rot_r	scapula_winging_r	shoulder_elv_r	plane_of_elev_r	axial_rot_r	elbow_flexion_r	pro_sup_r	wrist_flex_r	wrist_dev_r	clav_prot_l	clav_elev_l	scapula_abduction_l	scapula_elevation_l	scapula_upward_rot_l	scapula_winging_l	shoulder_elv_l	plane_of_elev_l	axial_rot_l	elbow_flexion_l	pro_sup_l	wrist_flex_l	wrist_dev_l	
4.4600	-38.362156	-9.192249	17.130901	-209.042920	827.762942	4.161576	5.760468	-45.000000	38.438596	-45.000000	-29.056265	2419.158146	-1909.185503	146.833096	-120.149142	1452.143911	11.414743	19.403859	7.868689	15.748066	37.717913	-39.043353	-45.000000	-44.847157	83.765517	72.516569	26.157215	-28.249733	2530.933260	5.124549	6.511867	-19.657698	
4.4700	-38.333461	-9.314671	17.234783	-206.189211	826.248478	4.131816	5.662143	-45.000000	38.514593	-45.000000	-28.585352	2419.323266	-1909.390900	146.932015	-119.979133	1452.087509	10.806646	19.332289	8.173940	15.866747	37.799593	-39.168997	-44.999999	-44.742707	83.587308	72.380479	26.207093	-28.099136	2530.881357	4.589489	6.751753	-19.582575	
4.4800	-38.310527	-9.436152	17.329823	-203.245445	824.662523	4.102771	5.550191	-45.000000	38.584562	-45.000000	-28.116782	2419.496888	-1909.607955	147.037033	-119.793914	1452.037468	10.305542	19.255108	8.470853	16.002622	37.893354	-39.293875	-44.999999	-44.599814	83.399908	72.222115	26.245367	-27.969050	2530.827689	4.120742	6.986976	-19.501224	
4.4900	-38.295638	-9.556113	17.418076	-200.214648	823.007021	4.074697	5.440699	-45.000000	38.649930	-45.000000	-27.657891	2419.675001	-1909.842085	147.141839	-119.601063	1451.984037	9.916975	19.170540	8.753140	16.134657	37.992158	-39.415464	-44.999998	-44.426334	83.202968	72.052874	26.278592	-27.863010	2530.768359	3.725493	7.221452	-19.413504	
4.5000	-38.286238	-9.678689	17.499966	-197.100252	821.284854	4.048150	5.340368	-45.000000	38.714426	-45.000000	-27.219460	2419.857166	-1910.093033	147.244555	-119.402925	1451.931912	9.643886	19.081182	9.019589	16.255336	38.089490	-39.528735	-44.999997	-44.234174	82.999578	71.875658	26.311400	-27.776293	2530.705813	3.408889	7.452973	-19.320437	
4.5100	-38.282689	-9.806704	17.579656	-193.905712	819.499563	4.023993	5.261045	-45.000000	38.778429	-45.000000	-26.810930	2420.040920	-1910.363062	147.340049	-119.207117	1451.875128	9.486125	18.986322	9.267804	16.350638	38.177826	-39.632640	-44.999994	-44.040543	82.791012	71.703056	26.349954	-27.707870	2530.638033	3.178694	7.681717	-19.222333	
4.5200	-38.282077	-9.943204	17.657985	-190.635243	817.655394	4.003316	5.201198	-45.000000	38.843256	-45.000000	-26.440687	2420.228034	-1910.648832	147.429099	-119.014767	1451.818438	9.437763	18.888613	9.501160	16.427046	38.253996	-39.727512	-44.999990	-43.859623	82.579435	71.534771	26.398986	-27.648654	2530.567167	3.039095	7.903459	-19.120573	
4.5300	-38.283343	-10.078620	17.737100	-187.294189	815.757041	3.987311	5.130032	-45.000000	38.901340	-45.000000	-26.082043	2420.418711	-1910.941478	147.522789	-118.817543	1451.759138	9.489914	18.787994	9.730369	16.523633	38.329069	-39.827645	-44.999981	-43.699148	82.348062	71.375216	26.442841	-27.569558	2530.493849	2.989895	8.114541	-19.017164	
4.5400	-38.282561	-10.216583	17.819475	-183.889276	813.809464	3.977086	5.044829	-45.000000	38.955972	-45.000000	-25.732274	2420.613433	-1911.237242	147.627231	-118.609371	1451.700465	9.624659	18.686707	9.959247	16.645066	38.406640	-39.931874	-44.999967	-43.556341	82.099373	71.213173	26.480260	-27.477004	2530.418079	3.034041	8.308391	-18.913881	
4.5500	-38.277053	-10.360139	17.911015	-180.428511	811.817633	3.973478	4.948469	-45.000000	39.006078	-45.000000	-25.394384	2420.810217	-1911.532814	147.742740	-118.386678	1451.640351	9.819743	18.585019	10.187591	16.788040	38.486016	-40.041001	-44.999940	-43.435031	81.835670	71.043450	26.511622	-27.372000	2530.339746	3.173724	8.482876	-18.812272	
4.5600	-38.267192	-10.517026	18.008023	-176.920655	809.786453	3.976921	4.869963	-45.000000	39.059090	-45.000000	-25.094540	2421.011235	-1911.834296	147.860752	-118.156989	1451.579077	10.049672	18.483967	10.409536	16.914319	38.560729	-40.141859	-44.999893	-43.324665	81.579412	70.857167	26.552934	-27.297888	2530.259290	3.414669	8.637855	-18.713452	
4.5700	-38.252897	-10.682346	18.109242	-173.374783	807.720864	3.987408	4.798984	-45.000000	39.110575	-45.000000	-24.821415	2421.215576	-1912.139706	147.984390	-117.912682	1451.513919	10.295806	18.382403	10.628129	17.033700	38.633702	-40.238474	-44.999809	-43.225397	81.322715	70.658470	26.596326	-27.243737	2530.178631	3.754325	8.775850	-18.619012	
4.5800	-38.238052	-10.858787	18.209794	-169.799116	805.625945	4.004561	4.749798	-45.000000	39.163417	-45.000000	-24.587460	2421.424687	-1912.459489	148.108768	-117.654124	1451.443347	10.541354	18.279874	10.839970	17.126035	38.700296	-40.322611	-44.999658	-43.130971	81.078464	70.451252	26.651169	-27.238332	2530.094903	4.194062	8.898959	-18.529222	
4.5900	-38.222837	-11.041389	18.313185	-166.200591	803.507107	4.027717	4.708333	-45.000000	39.211521	-45.000000	-24.383093	2421.636313	-1912.790977	148.237665	-117.373184	1451.364496	10.779579	18.174971	11.048432	17.209344	38.760530	-40.401780	-44.999387	-43.053215	80.833424	70.245665	26.708274	-27.257987	2530.008407	4.728615	9.010968	-18.445287	
4.6000	-38.210523	-11.231242	18.419863	-162.584654	801.370414	4.056053	4.677819	-45.000000	39.250499	-45.000000	-24.214369	2421.851072	-1913.140514	148.367532	-117.064693	1451.276243	11.010917	18.067365	11.252281	17.277681	38.810983	-40.470952	-44.998902	-42.991865	80.586843	70.054590	26.764929	-27.315075	2529.919653	5.352955	9.114901	-18.368080	
4.6100	-38.196494	-11.412562	18.532254	-158.955789	799.222653	4.088648	4.611969	-45.000000	39.274779	-45.000000	-24.041193	2422.066835	-1913.490516	148.514221	-116.719911	1451.179637	11.246378	17.957679	11.461491	17.392125	38.865170	-40.552896	-44.998033	-42.957641	80.311014	69.877012	26.798006	-27.351429	2529.830025	6.056795	9.209336	-18.299924	
4.6200	-38.179534	-11.591331	18.656466	-155.317933	797.071397	4.124567	4.525281	-45.000000	39.289102	-45.000000	-23.874186	2422.280947	-1913.842450	148.673265	-116.338505	1451.075948	11.496632	17.848475	11.667662	17.533926	38.919022	-40.640139	-44.996477	-42.946453	80.017005	69.708042	26.814894	-27.389859	2529.735732	6.835107	9.292505	-18.240806	
4.6300	-38.155780	-11.771204	18.795005	-151.675629	794.924973	4.162888	4.430425	-45.000000	39.296644	-45.000000	-23.722565	2422.493394	-1914.187808	148.836873	-115.930024	1450.967863	11.773514	17.742826	11.863954	17.686686	38.970333	-40.727776	-44.993690	-42.956113	79.712362	69.539332	26.818090	-27.439484	2529.641538	7.675417	9.366580	-18.191784	
4.6400	-38.129074	-11.954608	18.945850	-148.034635	792.792538	4.202790	4.351378	-45.000000	39.298546	-45.000000	-23.606512	2422.704806	-1914.533883	148.995570	-115.503301	1450.856205	12.089602	17.643541	12.039742	17.819287	39.012503	-40.807049	-44.988695	-42.978882	79.415856	69.371773	26.820283	-27.535901	2529.546016	8.561889	9.432722	-18.151431	
4.6500	-38.099729	-12.128554	19.089711	-144.402231	790.684020	4.243602	4.265993	-45.000000	39.298958	-45.000000	-23.483137	2422.915640	-1914.873720	149.152790	-115.067339	1450.745108	12.459204	17.553072	12.196469	17.961174	39.056094	-40.891724	-44.979753	-43.006638	79.121845	69.197605	26.810920	-27.651033	2529.446421	9.478498	9.492189	-18.119386	
4.6600	-38.070831	-12.285607	19.230446	-140.786689	788.610215	4.284876	4.179733	-45.000000	39.304734	-45.000000	-23.352905	2423.119360	-1915.212242	149.315508	-114.621449	1450.632318	12.893598	17.472160	12.331424	18.105474	39.096305	-40.979933	-44.963724	-43.030768	78.831373	69.025204	26.796901	-27.789374	2529.338613	10.413593	9.544191	-18.094071	
4.6700	-38.046043	-12.402642	19.337371	-137.196708	786.582780	4.326342	4.080195	-45.000000	39.329776	-45.000000	-23.155694	2423.306365	-1915.553541	149.483970	-114.163376	1450.517331	13.408301	17.399837	12.444386	18.261483	39.136023	-41.075471	-44.935041	-43.020382	78.525619	68.867752	26.758165	-27.923829	2529.228381	11.363166	9.599672	-18.077561	
4.6800	-38.020215	-12.493872	19.434131	-133.640421	784.614137	4.367852	4.007523	-45.000000	39.375897	-45.000000	-22.932835	2423.466931	-1915.899765	149.652558	-113.683996	1450.396465	14.002525	17.336443	12.525095	18.377151	39.155757	-41.171379	-44.883579	-42.986894	78.227499	68.729503	26.711362	-28.091896	2529.114471	12.315456	9.654294	-18.067462	
4.6900	-37.988546	-12.540376	19.485541	-130.125035	782.717147	4.409258	3.938127	-45.000000	39.459410	-45.000000	-22.617384	2423.597160	-1916.241776	149.818346	-113.188451	1450.272479	14.680972	17.281665	12.574796	18.471775	39.154306	-41.276289	-44.791627	-42.887291	77.939359	68.600802	26.637405	-28.289519	2528.993616	13.264758	9.711171	-18.063027	
4.7000	-37.944548	-12.520167	19.470115	-126.656615	780.904582	4.450333	3.860753	-45.000000	39.613711	-45.000000	-22.178122	2423.696704	-1916.555640	149.989788	-112.690043	1450.155136	15.446732	17.241548	12.594930	18.565861	39.129738	-41.416282	-44.626268	-42.695669	77.723994	68.444968	26.565983	-28.542163	2528.863855	14.202684	9.747603	-18.061079	
4.7100	-37.897683	-12.333973	19.252725	-123.240542	779.188476	4.490772	3.724986	-45.000000	39.918240	-45.000000	-21.361550	2423.726217	-1916.850180	150.170047	-112.196614	1450.049367	16.347110	17.216764	12.586352	18.695654	39.082325	-41.628336	-44.331867	-42.268707	77.597578	68.269134	26.459859	-28.827546	2528.735840	15.150900	9.778179	-18.067139	
4.7200	-37.837074	-12.024070	18.876509	-119.882717	777.579690	4.530339	3.579475	-45.000000	40.375976	-45.000000	-20.241844	2423.688512	-1917.110862	150.353857	-111.694966	1449.961514	17.374815	17.212081	12.541793	18.815970	39.002229	-41.905998	-43.903989	-41.651567	77.619783	68.041969	26.367810	-29.208356	2528.605542	16.098784	9.772001	-18.074365	
4.7300	-37.777313	-11.474554	18.183895	-116.588961	776.086600	4.569065	3.387258	-45.000000	41.095687	-45.000000	-18.479123	2423.509291	-1917.364669	150.552192	-111.178996	1449.894583	18.595461	17.227358	12.459075	18.923536	38.910073	-42.288694	-43.302890	-40.667389	77.786038	67.772939	26.237058	-29.649725	2528.473982	17.077043	9.747463	-18.086416	
